<svg height="512" viewBox="0 0 64 64" width="512" fill="#fff" xmlns="http://www.w3.org/2000/svg"><g id="Engineer-Avatar-Worker-Occupation-Man"><path d="m36 24h-2a2 2 0 0 1 -4 0h-2a4 4 0 0 0 8 0z"/><path d="m45.86 34.83-8.86-2.58v-1.6a10.023 10.023 0 0 0 5-8.65v-3.18a2.986 2.986 0 0 0 -.04-5.65 9.9 9.9 0 0 0 -6.96-8.71v-.46a2.006 2.006 0 0 0 -2-2h-2a2.006 2.006 0 0 0 -2 2v.46a9.9 9.9 0 0 0 -6.96 8.71 2.986 2.986 0 0 0 -.04 5.65v3.18a10.023 10.023 0 0 0 5 8.65v1.6l-8.85 2.58a7.021 7.021 0 0 0 -5.15 6.75v15.42a5 5 0 0 0 5 5h32a1 1 0 0 0 1-1v-19.42a7.024 7.024 0 0 0 -5.14-6.75zm-6.86.09v1.25a3.113 3.113 0 0 0 -2 0v-1.84zm-4-28.34a8.108 8.108 0 0 1 4.93 6.42h-4.93zm-4-2.58h2v9h-2zm-2 2.58v6.42h-4.93a8.108 8.108 0 0 1 4.93-6.42zm-7 9.42a1 1 0 0 1 1-1h18a1 1 0 0 1 0 2h-18a1 1 0 0 1 -1-1zm2 6v-3h16v3a8 8 0 0 1 -16 0zm11 9.54v3.96l-3 2.25-3-2.25v-3.96a10.013 10.013 0 0 0 6 0zm-10 3.38 2-.59v1.84a3.113 3.113 0 0 0 -2 0zm9 25.08h-2v-4h2a2 2 0 0 1 0 4zm8 0h-4.56a3.906 3.906 0 0 0 .56-2 4 4 0 0 0 -4-4h-8v-6h16zm7 0h-5v-16h-2v2h-17a1 1 0 0 0 -1 1v7h-1a1 1 0 0 1 -1-1v-9h-2v9a3.009 3.009 0 0 0 3 3h7v4h-12a3.009 3.009 0 0 1 -3-3v-15.42a5.035 5.035 0 0 1 3.7-4.83l4.3-1.25v3.5a1 1 0 0 0 2 0 1 1 0 0 1 2 0 1 1 0 0 0 2 0v-1l2.4 1.8a1 1 0 0 0 1.2 0l2.4-1.8v1a1 1 0 0 0 2 0 1 1 0 0 1 2 0 1 1 0 0 0 2 0v-3.5l4.31 1.25a5.038 5.038 0 0 1 3.69 4.83z"/><path d="m27 20h2v2h-2z"/><path d="m35 20h2v2h-2z"/></g></svg>